<mxfile host="app.diagrams.net" agent="Mozilla/5.0 (Macintosh; Intel Mac OS X 10_15_7) AppleWebKit/537.36 (KHTML, like Gecko) Chrome/140.0.0.0 Safari/537.36" version="28.2.7">
  <diagram name="Page-1" id="lEo_wuqpHQ9JwJ5ID9Qb">
    <mxGraphModel dx="3934" dy="1877" grid="1" gridSize="10" guides="1" tooltips="1" connect="1" arrows="1" fold="1" page="1" pageScale="1" pageWidth="850" pageHeight="1100" math="0" shadow="0">
      <root>
        <mxCell id="0" />
        <mxCell id="1" parent="0" />
        <mxCell id="NoarI2u_h07rfjIbSatj-26" style="edgeStyle=orthogonalEdgeStyle;rounded=0;orthogonalLoop=1;jettySize=auto;html=1;entryX=0.5;entryY=0;entryDx=0;entryDy=0;" edge="1" parent="1" source="NoarI2u_h07rfjIbSatj-1" target="NoarI2u_h07rfjIbSatj-78">
          <mxGeometry relative="1" as="geometry">
            <mxPoint x="-1159.9565217391303" y="619.9999999999998" as="targetPoint" />
          </mxGeometry>
        </mxCell>
        <mxCell id="NoarI2u_h07rfjIbSatj-27" style="edgeStyle=orthogonalEdgeStyle;rounded=0;orthogonalLoop=1;jettySize=auto;html=1;" edge="1" parent="1" source="NoarI2u_h07rfjIbSatj-1" target="NoarI2u_h07rfjIbSatj-24">
          <mxGeometry relative="1" as="geometry" />
        </mxCell>
        <mxCell id="NoarI2u_h07rfjIbSatj-28" style="edgeStyle=orthogonalEdgeStyle;rounded=0;orthogonalLoop=1;jettySize=auto;html=1;" edge="1" parent="1" source="NoarI2u_h07rfjIbSatj-1" target="NoarI2u_h07rfjIbSatj-22">
          <mxGeometry relative="1" as="geometry">
            <Array as="points">
              <mxPoint x="-870" y="570" />
              <mxPoint x="-870" y="570" />
            </Array>
          </mxGeometry>
        </mxCell>
        <mxCell id="NoarI2u_h07rfjIbSatj-30" style="edgeStyle=orthogonalEdgeStyle;rounded=0;orthogonalLoop=1;jettySize=auto;html=1;" edge="1" parent="1" source="NoarI2u_h07rfjIbSatj-1" target="NoarI2u_h07rfjIbSatj-25">
          <mxGeometry relative="1" as="geometry" />
        </mxCell>
        <mxCell id="NoarI2u_h07rfjIbSatj-1" value="&lt;span style=&quot;font-family: &amp;quot;YS Text&amp;quot;, sans-serif; font-size: 18px; text-align: left; white-space-collapse: preserve-breaks;&quot;&gt;&lt;font style=&quot;color: rgb(0, 0, 0);&quot;&gt;Публичные&lt;/font&gt;&lt;/span&gt;" style="rounded=1;whiteSpace=wrap;html=1;" vertex="1" parent="1">
          <mxGeometry x="-970" y="500" width="120" height="50" as="geometry" />
        </mxCell>
        <mxCell id="NoarI2u_h07rfjIbSatj-6" style="edgeStyle=orthogonalEdgeStyle;rounded=0;orthogonalLoop=1;jettySize=auto;html=1;entryX=0.5;entryY=0;entryDx=0;entryDy=0;" edge="1" parent="1" source="NoarI2u_h07rfjIbSatj-2" target="NoarI2u_h07rfjIbSatj-1">
          <mxGeometry relative="1" as="geometry">
            <Array as="points">
              <mxPoint x="-910" y="395" />
            </Array>
          </mxGeometry>
        </mxCell>
        <mxCell id="NoarI2u_h07rfjIbSatj-7" style="edgeStyle=orthogonalEdgeStyle;rounded=0;orthogonalLoop=1;jettySize=auto;html=1;" edge="1" parent="1" source="NoarI2u_h07rfjIbSatj-2" target="NoarI2u_h07rfjIbSatj-3">
          <mxGeometry relative="1" as="geometry">
            <Array as="points">
              <mxPoint x="510" y="590" />
              <mxPoint x="-10" y="590" />
            </Array>
          </mxGeometry>
        </mxCell>
        <mxCell id="NoarI2u_h07rfjIbSatj-8" style="edgeStyle=orthogonalEdgeStyle;rounded=0;orthogonalLoop=1;jettySize=auto;html=1;entryX=0.5;entryY=0;entryDx=0;entryDy=0;" edge="1" parent="1" source="NoarI2u_h07rfjIbSatj-2" target="NoarI2u_h07rfjIbSatj-4">
          <mxGeometry relative="1" as="geometry">
            <Array as="points">
              <mxPoint x="510" y="590" />
              <mxPoint x="755" y="590" />
            </Array>
          </mxGeometry>
        </mxCell>
        <mxCell id="NoarI2u_h07rfjIbSatj-2" value="&lt;span style=&quot;font-family: &amp;quot;YS Text&amp;quot;, sans-serif; font-size: 18px; text-align: start; white-space-collapse: preserve;&quot;&gt;Безопасность данных&lt;/span&gt;" style="rounded=1;whiteSpace=wrap;html=1;strokeColor=default;fillColor=none;fontColor=default;" vertex="1" parent="1">
          <mxGeometry x="360" y="370" width="300" height="50" as="geometry" />
        </mxCell>
        <mxCell id="NoarI2u_h07rfjIbSatj-35" style="edgeStyle=orthogonalEdgeStyle;rounded=0;orthogonalLoop=1;jettySize=auto;html=1;" edge="1" parent="1" source="NoarI2u_h07rfjIbSatj-3" target="NoarI2u_h07rfjIbSatj-31">
          <mxGeometry relative="1" as="geometry" />
        </mxCell>
        <mxCell id="NoarI2u_h07rfjIbSatj-36" style="edgeStyle=orthogonalEdgeStyle;rounded=0;orthogonalLoop=1;jettySize=auto;html=1;" edge="1" parent="1" source="NoarI2u_h07rfjIbSatj-3" target="NoarI2u_h07rfjIbSatj-32">
          <mxGeometry relative="1" as="geometry" />
        </mxCell>
        <mxCell id="NoarI2u_h07rfjIbSatj-37" style="edgeStyle=orthogonalEdgeStyle;rounded=0;orthogonalLoop=1;jettySize=auto;html=1;entryX=0.5;entryY=0;entryDx=0;entryDy=0;" edge="1" parent="1" source="NoarI2u_h07rfjIbSatj-3" target="NoarI2u_h07rfjIbSatj-33">
          <mxGeometry relative="1" as="geometry" />
        </mxCell>
        <mxCell id="NoarI2u_h07rfjIbSatj-38" style="edgeStyle=orthogonalEdgeStyle;rounded=0;orthogonalLoop=1;jettySize=auto;html=1;" edge="1" parent="1" source="NoarI2u_h07rfjIbSatj-3" target="NoarI2u_h07rfjIbSatj-34">
          <mxGeometry relative="1" as="geometry" />
        </mxCell>
        <mxCell id="NoarI2u_h07rfjIbSatj-3" value="&lt;span style=&quot;font-family: &amp;quot;YS Text&amp;quot;, sans-serif; font-size: 18px; text-align: left; white-space-collapse: preserve-breaks;&quot;&gt;&lt;font style=&quot;color: rgb(0, 0, 0);&quot;&gt;Внутренние&lt;/font&gt;&lt;/span&gt;" style="rounded=1;whiteSpace=wrap;html=1;" vertex="1" parent="1">
          <mxGeometry x="-70" y="780" width="120" height="50" as="geometry" />
        </mxCell>
        <mxCell id="NoarI2u_h07rfjIbSatj-43" style="edgeStyle=orthogonalEdgeStyle;rounded=0;orthogonalLoop=1;jettySize=auto;html=1;" edge="1" parent="1" source="NoarI2u_h07rfjIbSatj-4" target="NoarI2u_h07rfjIbSatj-39">
          <mxGeometry relative="1" as="geometry" />
        </mxCell>
        <mxCell id="NoarI2u_h07rfjIbSatj-44" style="edgeStyle=orthogonalEdgeStyle;rounded=0;orthogonalLoop=1;jettySize=auto;html=1;" edge="1" parent="1" source="NoarI2u_h07rfjIbSatj-4" target="NoarI2u_h07rfjIbSatj-40">
          <mxGeometry relative="1" as="geometry">
            <Array as="points">
              <mxPoint x="750" y="980" />
              <mxPoint x="640" y="980" />
            </Array>
          </mxGeometry>
        </mxCell>
        <mxCell id="NoarI2u_h07rfjIbSatj-45" style="edgeStyle=orthogonalEdgeStyle;rounded=0;orthogonalLoop=1;jettySize=auto;html=1;" edge="1" parent="1" source="NoarI2u_h07rfjIbSatj-4" target="NoarI2u_h07rfjIbSatj-41">
          <mxGeometry relative="1" as="geometry">
            <Array as="points">
              <mxPoint x="750" y="980" />
              <mxPoint x="820" y="980" />
            </Array>
          </mxGeometry>
        </mxCell>
        <mxCell id="NoarI2u_h07rfjIbSatj-46" style="edgeStyle=orthogonalEdgeStyle;rounded=0;orthogonalLoop=1;jettySize=auto;html=1;" edge="1" parent="1" source="NoarI2u_h07rfjIbSatj-4" target="NoarI2u_h07rfjIbSatj-42">
          <mxGeometry relative="1" as="geometry" />
        </mxCell>
        <mxCell id="NoarI2u_h07rfjIbSatj-4" value="&lt;span style=&quot;font-family: &amp;quot;YS Text&amp;quot;, sans-serif; font-size: 18px; text-align: left; white-space-collapse: preserve-breaks;&quot;&gt;&lt;font style=&quot;color: rgb(0, 0, 0);&quot;&gt;Конфиденциальные&lt;/font&gt;&lt;/span&gt;" style="rounded=1;whiteSpace=wrap;html=1;" vertex="1" parent="1">
          <mxGeometry x="650" y="900" width="210" height="50" as="geometry" />
        </mxCell>
        <mxCell id="NoarI2u_h07rfjIbSatj-18" style="edgeStyle=orthogonalEdgeStyle;rounded=0;orthogonalLoop=1;jettySize=auto;html=1;" edge="1" parent="1" source="NoarI2u_h07rfjIbSatj-5" target="NoarI2u_h07rfjIbSatj-15">
          <mxGeometry relative="1" as="geometry" />
        </mxCell>
        <mxCell id="NoarI2u_h07rfjIbSatj-19" style="edgeStyle=orthogonalEdgeStyle;rounded=0;orthogonalLoop=1;jettySize=auto;html=1;" edge="1" parent="1" source="NoarI2u_h07rfjIbSatj-5" target="NoarI2u_h07rfjIbSatj-16">
          <mxGeometry relative="1" as="geometry" />
        </mxCell>
        <mxCell id="NoarI2u_h07rfjIbSatj-20" style="edgeStyle=orthogonalEdgeStyle;rounded=0;orthogonalLoop=1;jettySize=auto;html=1;" edge="1" parent="1" source="NoarI2u_h07rfjIbSatj-5" target="NoarI2u_h07rfjIbSatj-14">
          <mxGeometry relative="1" as="geometry">
            <Array as="points">
              <mxPoint x="1410" y="525" />
            </Array>
          </mxGeometry>
        </mxCell>
        <mxCell id="NoarI2u_h07rfjIbSatj-21" style="edgeStyle=orthogonalEdgeStyle;rounded=0;orthogonalLoop=1;jettySize=auto;html=1;entryX=0.5;entryY=0;entryDx=0;entryDy=0;" edge="1" parent="1" source="NoarI2u_h07rfjIbSatj-5" target="NoarI2u_h07rfjIbSatj-65">
          <mxGeometry relative="1" as="geometry">
            <mxPoint x="1539.947368421053" y="620" as="targetPoint" />
          </mxGeometry>
        </mxCell>
        <mxCell id="NoarI2u_h07rfjIbSatj-5" value="&lt;span style=&quot;font-family: &amp;quot;YS Text&amp;quot;, sans-serif; font-size: 18px; text-align: left; white-space-collapse: preserve-breaks;&quot;&gt;&lt;font style=&quot;color: rgb(0, 0, 0);&quot;&gt;Секретные&lt;/font&gt;&lt;/span&gt;" style="rounded=1;whiteSpace=wrap;html=1;" vertex="1" parent="1">
          <mxGeometry x="1280" y="500" width="120" height="50" as="geometry" />
        </mxCell>
        <mxCell id="NoarI2u_h07rfjIbSatj-10" style="edgeStyle=orthogonalEdgeStyle;rounded=0;orthogonalLoop=1;jettySize=auto;html=1;entryX=0.5;entryY=0;entryDx=0;entryDy=0;" edge="1" parent="1" source="NoarI2u_h07rfjIbSatj-2" target="NoarI2u_h07rfjIbSatj-5">
          <mxGeometry relative="1" as="geometry" />
        </mxCell>
        <mxCell id="NoarI2u_h07rfjIbSatj-70" style="edgeStyle=orthogonalEdgeStyle;rounded=0;orthogonalLoop=1;jettySize=auto;html=1;entryX=0.5;entryY=0;entryDx=0;entryDy=0;exitX=0.5;exitY=1;exitDx=0;exitDy=0;" edge="1" parent="1" source="NoarI2u_h07rfjIbSatj-14" target="NoarI2u_h07rfjIbSatj-75">
          <mxGeometry relative="1" as="geometry">
            <mxPoint x="1472" y="800" as="targetPoint" />
            <Array as="points">
              <mxPoint x="1410" y="720" />
              <mxPoint x="1410" y="720" />
            </Array>
          </mxGeometry>
        </mxCell>
        <mxCell id="NoarI2u_h07rfjIbSatj-14" value="&lt;div style=&quot;&quot;&gt;&lt;pre style=&quot;font-family: &amp;quot;JetBrains Mono&amp;quot;, monospace;&quot;&gt;&lt;span&gt;&lt;font style=&quot;color: rgb(0, 0, 0);&quot;&gt;Секретные ключи &lt;br/&gt;и доступы&lt;/font&gt;&lt;/span&gt;&lt;/pre&gt;&lt;/div&gt;" style="rounded=1;whiteSpace=wrap;html=1;" vertex="1" parent="1">
          <mxGeometry x="1350" y="620" width="120" height="50" as="geometry" />
        </mxCell>
        <mxCell id="NoarI2u_h07rfjIbSatj-83" style="edgeStyle=orthogonalEdgeStyle;rounded=0;orthogonalLoop=1;jettySize=auto;html=1;entryX=0.5;entryY=0;entryDx=0;entryDy=0;" edge="1" parent="1" source="NoarI2u_h07rfjIbSatj-15" target="NoarI2u_h07rfjIbSatj-82">
          <mxGeometry relative="1" as="geometry" />
        </mxCell>
        <mxCell id="NoarI2u_h07rfjIbSatj-15" value="&lt;div&gt;&lt;pre style=&quot;font-family: &amp;quot;JetBrains Mono&amp;quot;, monospace;&quot;&gt;&lt;span&gt;&lt;font style=&quot;color: rgb(0, 0, 0);&quot;&gt;Платёжные &lt;br/&gt;документы &lt;br/&gt;клиентов&lt;/font&gt;&lt;/span&gt;&lt;/pre&gt;&lt;/div&gt;" style="rounded=1;whiteSpace=wrap;html=1;" vertex="1" parent="1">
          <mxGeometry x="920" y="620" width="120" height="50" as="geometry" />
        </mxCell>
        <mxCell id="NoarI2u_h07rfjIbSatj-81" style="edgeStyle=orthogonalEdgeStyle;rounded=0;orthogonalLoop=1;jettySize=auto;html=1;" edge="1" parent="1" source="NoarI2u_h07rfjIbSatj-16" target="NoarI2u_h07rfjIbSatj-80">
          <mxGeometry relative="1" as="geometry" />
        </mxCell>
        <mxCell id="NoarI2u_h07rfjIbSatj-16" value="&lt;div&gt;&lt;pre style=&quot;font-family: &amp;quot;JetBrains Mono&amp;quot;, monospace;&quot;&gt;&lt;span&gt;&lt;font style=&quot;color: rgb(0, 0, 0);&quot;&gt;Платёжные &lt;br/&gt;документы &lt;br/&gt;организации&lt;/font&gt;&lt;/span&gt;&lt;/pre&gt;&lt;/div&gt;" style="rounded=1;whiteSpace=wrap;html=1;" vertex="1" parent="1">
          <mxGeometry x="1150" y="620" width="120" height="50" as="geometry" />
        </mxCell>
        <mxCell id="NoarI2u_h07rfjIbSatj-22" value="&lt;div style=&quot;&quot;&gt;&lt;pre style=&quot;&quot;&gt;&lt;font face=&quot;JetBrains Mono, monospace&quot;&gt;Маркетинговые &lt;br/&gt;данные&lt;/font&gt;&lt;/pre&gt;&lt;/div&gt;" style="rounded=1;whiteSpace=wrap;html=1;" vertex="1" parent="1">
          <mxGeometry x="-900" y="620" width="120" height="50" as="geometry" />
        </mxCell>
        <mxCell id="NoarI2u_h07rfjIbSatj-102" style="edgeStyle=orthogonalEdgeStyle;rounded=0;orthogonalLoop=1;jettySize=auto;html=1;exitX=0.5;exitY=1;exitDx=0;exitDy=0;" edge="1" parent="1" source="NoarI2u_h07rfjIbSatj-22" target="NoarI2u_h07rfjIbSatj-101">
          <mxGeometry relative="1" as="geometry" />
        </mxCell>
        <mxCell id="NoarI2u_h07rfjIbSatj-24" value="&lt;pre style=&quot;&quot;&gt;&lt;font face=&quot;JetBrains Mono, monospace&quot;&gt;Общие правила &lt;br/&gt;и инструкции&lt;/font&gt;&lt;/pre&gt;" style="rounded=1;whiteSpace=wrap;html=1;" vertex="1" parent="1">
          <mxGeometry x="-1125" y="620" width="120" height="50" as="geometry" />
        </mxCell>
        <mxCell id="NoarI2u_h07rfjIbSatj-104" style="edgeStyle=orthogonalEdgeStyle;rounded=0;orthogonalLoop=1;jettySize=auto;html=1;" edge="1" parent="1" source="NoarI2u_h07rfjIbSatj-25" target="NoarI2u_h07rfjIbSatj-103">
          <mxGeometry relative="1" as="geometry" />
        </mxCell>
        <mxCell id="NoarI2u_h07rfjIbSatj-25" value="&lt;div style=&quot;&quot;&gt;&lt;pre style=&quot;&quot;&gt;&lt;div style=&quot;&quot;&gt;&lt;pre style=&quot;&quot;&gt;&lt;font face=&quot;JetBrains Mono, monospace&quot;&gt;Новости &lt;br/&gt;компании&lt;/font&gt;&lt;/pre&gt;&lt;/div&gt;&lt;/pre&gt;&lt;/div&gt;" style="rounded=1;whiteSpace=wrap;html=1;" vertex="1" parent="1">
          <mxGeometry x="-705" y="620" width="120" height="50" as="geometry" />
        </mxCell>
        <mxCell id="NoarI2u_h07rfjIbSatj-92" style="edgeStyle=orthogonalEdgeStyle;rounded=0;orthogonalLoop=1;jettySize=auto;html=1;" edge="1" parent="1" source="NoarI2u_h07rfjIbSatj-31" target="NoarI2u_h07rfjIbSatj-91">
          <mxGeometry relative="1" as="geometry" />
        </mxCell>
        <mxCell id="NoarI2u_h07rfjIbSatj-31" value="&lt;pre style=&quot;&quot;&gt;&lt;pre style=&quot;&quot;&gt;&lt;font face=&quot;JetBrains Mono, monospace&quot;&gt;Внутренние &lt;br/&gt;регламенты &lt;br&gt;и инструкции&lt;/font&gt;&lt;/pre&gt;&lt;/pre&gt;" style="rounded=1;whiteSpace=wrap;html=1;" vertex="1" parent="1">
          <mxGeometry x="-485" y="870" width="120" height="50" as="geometry" />
        </mxCell>
        <mxCell id="NoarI2u_h07rfjIbSatj-94" style="edgeStyle=orthogonalEdgeStyle;rounded=0;orthogonalLoop=1;jettySize=auto;html=1;exitX=0.5;exitY=1;exitDx=0;exitDy=0;" edge="1" parent="1" source="NoarI2u_h07rfjIbSatj-33" target="NoarI2u_h07rfjIbSatj-93">
          <mxGeometry relative="1" as="geometry" />
        </mxCell>
        <mxCell id="NoarI2u_h07rfjIbSatj-96" style="edgeStyle=orthogonalEdgeStyle;rounded=0;orthogonalLoop=1;jettySize=auto;html=1;" edge="1" parent="1" source="NoarI2u_h07rfjIbSatj-32" target="NoarI2u_h07rfjIbSatj-95">
          <mxGeometry relative="1" as="geometry" />
        </mxCell>
        <mxCell id="NoarI2u_h07rfjIbSatj-32" value="&lt;pre style=&quot;&quot;&gt;&lt;font face=&quot;JetBrains Mono, monospace&quot;&gt;Данные о &lt;br/&gt;недвижимости&lt;/font&gt;&lt;/pre&gt;" style="rounded=1;whiteSpace=wrap;html=1;" vertex="1" parent="1">
          <mxGeometry x="-275" y="870" width="120" height="50" as="geometry" />
        </mxCell>
        <mxCell id="NoarI2u_h07rfjIbSatj-33" value="&lt;div style=&quot;&quot;&gt;&lt;pre style=&quot;&quot;&gt;&lt;font face=&quot;JetBrains Mono, monospace&quot;&gt;Данные оценки &lt;br/&gt;недвижимости&lt;/font&gt;&lt;/pre&gt;&lt;/div&gt;" style="rounded=1;whiteSpace=wrap;html=1;" vertex="1" parent="1">
          <mxGeometry x="-70" y="870" width="120" height="50" as="geometry" />
        </mxCell>
        <mxCell id="NoarI2u_h07rfjIbSatj-98" style="edgeStyle=orthogonalEdgeStyle;rounded=0;orthogonalLoop=1;jettySize=auto;html=1;" edge="1" parent="1" source="NoarI2u_h07rfjIbSatj-34" target="NoarI2u_h07rfjIbSatj-97">
          <mxGeometry relative="1" as="geometry" />
        </mxCell>
        <mxCell id="NoarI2u_h07rfjIbSatj-34" value="&lt;div style=&quot;&quot;&gt;&lt;pre style=&quot;&quot;&gt;&lt;div style=&quot;&quot;&gt;&lt;pre style=&quot;&quot;&gt;&lt;font face=&quot;JetBrains Mono, monospace&quot;&gt;Техническая и &lt;br/&gt;архитектурная &lt;br/&gt;информация&lt;/font&gt;&lt;/pre&gt;&lt;/div&gt;&lt;/pre&gt;&lt;/div&gt;" style="rounded=1;whiteSpace=wrap;html=1;" vertex="1" parent="1">
          <mxGeometry x="135" y="870" width="120" height="50" as="geometry" />
        </mxCell>
        <mxCell id="NoarI2u_h07rfjIbSatj-85" style="edgeStyle=orthogonalEdgeStyle;rounded=0;orthogonalLoop=1;jettySize=auto;html=1;" edge="1" parent="1" source="NoarI2u_h07rfjIbSatj-39" target="NoarI2u_h07rfjIbSatj-84">
          <mxGeometry relative="1" as="geometry" />
        </mxCell>
        <mxCell id="NoarI2u_h07rfjIbSatj-39" value="&lt;pre style=&quot;&quot;&gt;&lt;pre style=&quot;&quot;&gt;&lt;font face=&quot;JetBrains Mono, monospace&quot;&gt;Данные &lt;br/&gt;клиентов&lt;/font&gt;&lt;/pre&gt;&lt;/pre&gt;" style="rounded=1;whiteSpace=wrap;html=1;" vertex="1" parent="1">
          <mxGeometry x="405" y="1000" width="120" height="50" as="geometry" />
        </mxCell>
        <mxCell id="NoarI2u_h07rfjIbSatj-86" style="edgeStyle=orthogonalEdgeStyle;rounded=0;orthogonalLoop=1;jettySize=auto;html=1;entryX=1;entryY=0.5;entryDx=0;entryDy=0;exitX=0.5;exitY=1;exitDx=0;exitDy=0;" edge="1" parent="1" source="NoarI2u_h07rfjIbSatj-40" target="NoarI2u_h07rfjIbSatj-84">
          <mxGeometry relative="1" as="geometry">
            <Array as="points">
              <mxPoint x="640" y="1200" />
            </Array>
          </mxGeometry>
        </mxCell>
        <mxCell id="NoarI2u_h07rfjIbSatj-40" value="&lt;pre style=&quot;&quot;&gt;&lt;font face=&quot;JetBrains Mono, monospace&quot;&gt;Данные &lt;br/&gt;собственников&lt;/font&gt;&lt;/pre&gt;" style="rounded=1;whiteSpace=wrap;html=1;" vertex="1" parent="1">
          <mxGeometry x="580" y="1000" width="120" height="50" as="geometry" />
        </mxCell>
        <mxCell id="NoarI2u_h07rfjIbSatj-90" style="edgeStyle=orthogonalEdgeStyle;rounded=0;orthogonalLoop=1;jettySize=auto;html=1;" edge="1" parent="1" source="NoarI2u_h07rfjIbSatj-41" target="NoarI2u_h07rfjIbSatj-89">
          <mxGeometry relative="1" as="geometry" />
        </mxCell>
        <mxCell id="NoarI2u_h07rfjIbSatj-41" value="&lt;div style=&quot;&quot;&gt;&lt;pre style=&quot;&quot;&gt;&lt;font face=&quot;JetBrains Mono, monospace&quot;&gt;Данные &lt;br/&gt;компании&lt;/font&gt;&lt;/pre&gt;&lt;/div&gt;" style="rounded=1;whiteSpace=wrap;html=1;" vertex="1" parent="1">
          <mxGeometry x="760" y="1000" width="120" height="50" as="geometry" />
        </mxCell>
        <mxCell id="NoarI2u_h07rfjIbSatj-88" style="edgeStyle=orthogonalEdgeStyle;rounded=0;orthogonalLoop=1;jettySize=auto;html=1;" edge="1" parent="1" source="NoarI2u_h07rfjIbSatj-42" target="NoarI2u_h07rfjIbSatj-87">
          <mxGeometry relative="1" as="geometry" />
        </mxCell>
        <mxCell id="NoarI2u_h07rfjIbSatj-42" value="&lt;div style=&quot;&quot;&gt;&lt;pre style=&quot;&quot;&gt;&lt;div style=&quot;&quot;&gt;&lt;pre style=&quot;&quot;&gt;&lt;font face=&quot;JetBrains Mono, monospace&quot;&gt;Данные &lt;br/&gt;о сделках&lt;/font&gt;&lt;/pre&gt;&lt;/div&gt;&lt;/pre&gt;&lt;/div&gt;" style="rounded=1;whiteSpace=wrap;html=1;" vertex="1" parent="1">
          <mxGeometry x="945" y="1000" width="120" height="50" as="geometry" />
        </mxCell>
        <mxCell id="NoarI2u_h07rfjIbSatj-77" style="edgeStyle=orthogonalEdgeStyle;rounded=0;orthogonalLoop=1;jettySize=auto;html=1;" edge="1" parent="1" source="NoarI2u_h07rfjIbSatj-65" target="NoarI2u_h07rfjIbSatj-76">
          <mxGeometry relative="1" as="geometry" />
        </mxCell>
        <mxCell id="NoarI2u_h07rfjIbSatj-65" value="&lt;div style=&quot;&quot;&gt;&lt;pre style=&quot;&quot;&gt;&lt;font face=&quot;JetBrains Mono, monospace&quot;&gt;Данные аудита &lt;br&gt;и безопасности&lt;/font&gt;&lt;font face=&quot;JetBrains Mono, monospace&quot;&gt;&lt;/font&gt;&lt;/pre&gt;&lt;/div&gt;" style="rounded=1;whiteSpace=wrap;html=1;fontColor=default;" vertex="1" parent="1">
          <mxGeometry x="1557" y="620" width="120" height="50" as="geometry" />
        </mxCell>
        <mxCell id="NoarI2u_h07rfjIbSatj-75" value="&lt;b&gt;&lt;i&gt;Критический&lt;/i&gt;&lt;/b&gt;&lt;br&gt;Утечка данных ключей и доступы администраторов, повлечет катастрафические последствия для инфраструктуры и всех данных систем&amp;nbsp;" style="rounded=1;whiteSpace=wrap;html=1;" vertex="1" parent="1">
          <mxGeometry x="1325" y="760" width="170" height="120" as="geometry" />
        </mxCell>
        <mxCell id="NoarI2u_h07rfjIbSatj-76" value="&lt;b&gt;&lt;i&gt;Значительный&lt;/i&gt;&amp;nbsp;&lt;/b&gt;&lt;br&gt;Утечка данных аудита скомпроментирует&lt;br&gt;системы данными из логов и состоянии пользователей&amp;nbsp; &amp;nbsp;" style="rounded=1;whiteSpace=wrap;html=1;" vertex="1" parent="1">
          <mxGeometry x="1532" y="760" width="170" height="120" as="geometry" />
        </mxCell>
        <mxCell id="NoarI2u_h07rfjIbSatj-100" style="edgeStyle=orthogonalEdgeStyle;rounded=0;orthogonalLoop=1;jettySize=auto;html=1;" edge="1" parent="1" source="NoarI2u_h07rfjIbSatj-78" target="NoarI2u_h07rfjIbSatj-99">
          <mxGeometry relative="1" as="geometry" />
        </mxCell>
        <mxCell id="NoarI2u_h07rfjIbSatj-78" value="&lt;pre style=&quot;&quot;&gt;&lt;font face=&quot;JetBrains Mono, monospace&quot;&gt;Информация о &lt;br/&gt;жилых комплексах&lt;/font&gt;&lt;/pre&gt;" style="rounded=1;whiteSpace=wrap;html=1;" vertex="1" parent="1">
          <mxGeometry x="-1335" y="620" width="120" height="50" as="geometry" />
        </mxCell>
        <mxCell id="NoarI2u_h07rfjIbSatj-80" value="&lt;b&gt;&lt;i&gt;Значительный&lt;/i&gt;&amp;nbsp;&lt;br&gt;&lt;/b&gt;&lt;div&gt;Некачественные данные&lt;br&gt;шибки при ручном вводе платежных данных ведут к неверным транзакциям&lt;b&gt;.&lt;/b&gt;&lt;/div&gt;" style="rounded=1;whiteSpace=wrap;html=1;" vertex="1" parent="1">
          <mxGeometry x="1125" y="760" width="170" height="120" as="geometry" />
        </mxCell>
        <mxCell id="NoarI2u_h07rfjIbSatj-82" value="&lt;b&gt;&lt;i&gt;Значительный&lt;/i&gt;&amp;nbsp;&lt;/b&gt;&lt;br&gt;&amp;nbsp; &amp;nbsp;&amp;nbsp;Искажение реквизитов или сумм в документах вызывает прямые финансовые убытки" style="rounded=1;whiteSpace=wrap;html=1;" vertex="1" parent="1">
          <mxGeometry x="895" y="760" width="170" height="120" as="geometry" />
        </mxCell>
        <mxCell id="NoarI2u_h07rfjIbSatj-84" value="&lt;b&gt;&lt;i&gt;Значительный&lt;/i&gt;&amp;nbsp;&lt;/b&gt;&lt;br&gt;&amp;nbsp; Значительный риск нарушения законодательства штрафов и потери доверия при утечке данных ." style="rounded=1;whiteSpace=wrap;html=1;" vertex="1" parent="1">
          <mxGeometry x="380" y="1140" width="170" height="120" as="geometry" />
        </mxCell>
        <mxCell id="NoarI2u_h07rfjIbSatj-87" value="&lt;b&gt;&lt;i&gt;Значительный&lt;/i&gt;&amp;nbsp;&lt;/b&gt;&lt;br&gt;&amp;nbsp; Искажение данных&lt;br&gt;Ошибки в данных сделок и клиентах приводят к некорректным расчётам, конфликтам и судебным спорам." style="rounded=1;whiteSpace=wrap;html=1;" vertex="1" parent="1">
          <mxGeometry x="920" y="1130" width="170" height="120" as="geometry" />
        </mxCell>
        <mxCell id="NoarI2u_h07rfjIbSatj-89" value="&lt;b&gt;&lt;i&gt;Значительный&lt;/i&gt;&amp;nbsp;&lt;/b&gt;&lt;br&gt;Потеря данных ведет ключевые временные и репутационные потери.&amp;nbsp;" style="rounded=1;whiteSpace=wrap;html=1;" vertex="1" parent="1">
          <mxGeometry x="735" y="1130" width="170" height="120" as="geometry" />
        </mxCell>
        <mxCell id="NoarI2u_h07rfjIbSatj-91" value="&lt;b&gt;&lt;i&gt;Значительный&lt;/i&gt;&amp;nbsp;&lt;/b&gt;&lt;br&gt;&amp;nbsp;Утечка внутренних регламентов и инструкции приведет к потери конкуретного преимущества&amp;nbsp;" style="rounded=1;whiteSpace=wrap;html=1;" vertex="1" parent="1">
          <mxGeometry x="-510" y="1000" width="170" height="120" as="geometry" />
        </mxCell>
        <mxCell id="NoarI2u_h07rfjIbSatj-93" value="&lt;b&gt;&lt;i&gt;Значительный&lt;/i&gt;&amp;nbsp;&lt;/b&gt;&lt;div&gt;Потеря данных может нарушить процессы планирования и оценку объектов.&lt;/div&gt;" style="rounded=1;whiteSpace=wrap;html=1;" vertex="1" parent="1">
          <mxGeometry x="-95" y="1000" width="170" height="120" as="geometry" />
        </mxCell>
        <mxCell id="NoarI2u_h07rfjIbSatj-95" value="&lt;b&gt;&lt;i&gt;Значительный&lt;/i&gt;&amp;nbsp;&lt;/b&gt;&lt;div&gt;Искажение данных&lt;br&gt;Некорректное обновление данных ведёт к ошибкам в принятии управленческих решений.&lt;/div&gt;" style="rounded=1;whiteSpace=wrap;html=1;" vertex="1" parent="1">
          <mxGeometry x="-300" y="1000" width="170" height="120" as="geometry" />
        </mxCell>
        <mxCell id="NoarI2u_h07rfjIbSatj-97" value="&lt;b&gt;&lt;i&gt;Значительный&lt;/i&gt;&amp;nbsp;&lt;/b&gt;&lt;div&gt;&amp;nbsp;Возможна утечка технической или аналитической информации, что создаёт риск конкурентного ущерба&lt;/div&gt;" style="rounded=1;whiteSpace=wrap;html=1;" vertex="1" parent="1">
          <mxGeometry x="110" y="1000" width="170" height="120" as="geometry" />
        </mxCell>
        <mxCell id="NoarI2u_h07rfjIbSatj-99" value="&lt;b&gt;&lt;i&gt;Значительный&lt;/i&gt;&amp;nbsp;&lt;br&gt;&lt;/b&gt;Некачественные даннык&lt;br&gt;Ошибки при обновлении контента (например, устаревшие цены, неточные планировки) снижают доверие пользователей.&amp;nbsp;" style="rounded=1;whiteSpace=wrap;html=1;" vertex="1" parent="1">
          <mxGeometry x="-1360" y="720" width="170" height="120" as="geometry" />
        </mxCell>
        <mxCell id="NoarI2u_h07rfjIbSatj-101" value="&lt;b style=&quot;font-style: italic;&quot;&gt;Незначитальный&lt;/b&gt;&lt;br&gt;Риск минимален при утечки, так как данные предназначены для публичного распространения." style="rounded=1;whiteSpace=wrap;html=1;" vertex="1" parent="1">
          <mxGeometry x="-925" y="720" width="170" height="120" as="geometry" />
        </mxCell>
        <mxCell id="NoarI2u_h07rfjIbSatj-103" value="&lt;b style=&quot;font-style: italic;&quot;&gt;Незначитальный&lt;/b&gt;&lt;br&gt;Негативное влияние при некачественных данных" style="rounded=1;whiteSpace=wrap;html=1;" vertex="1" parent="1">
          <mxGeometry x="-730" y="720" width="170" height="120" as="geometry" />
        </mxCell>
        <mxCell id="NoarI2u_h07rfjIbSatj-105" value="&lt;b style=&quot;font-style: italic;&quot;&gt;Незначитальный&lt;/b&gt;&lt;b&gt;&amp;nbsp;&lt;br&gt;&lt;/b&gt;Обесценивание данных путем неактуальных регламентов&amp;nbsp;&amp;nbsp;" style="rounded=1;whiteSpace=wrap;html=1;" vertex="1" parent="1">
          <mxGeometry x="-1150" y="720" width="170" height="120" as="geometry" />
        </mxCell>
        <mxCell id="NoarI2u_h07rfjIbSatj-106" style="edgeStyle=orthogonalEdgeStyle;rounded=0;orthogonalLoop=1;jettySize=auto;html=1;entryX=0.5;entryY=0;entryDx=0;entryDy=0;" edge="1" parent="1" source="NoarI2u_h07rfjIbSatj-24" target="NoarI2u_h07rfjIbSatj-105">
          <mxGeometry relative="1" as="geometry" />
        </mxCell>
      </root>
    </mxGraphModel>
  </diagram>
</mxfile>
